<svg width="32mm" height="20mm" viewBox="0 0 32 20" xmlns="http://www.w3.org/2000/svg">
  <g transform="translate(-58.488283,-96.92188)">
    <g transform="matrix(0.98313832,0,0,0.96312994,0.98621082,4.3109169)">
      <path style="fill:#e5e5e5;" d="m 69.755835,100.51945 3.801525,4.65246 -3.282651,1.32047 c -0.03651,0.0147 -0.0718,0.0307 -0.105748,0.0487 l -1.66486,-0.95397 -1.030099,0.41493 1.76533,2.03871 0.138148,2.69325 1.030292,-0.41444 0.540514,-1.84111 c 0.03693,-0.0105 0.07369,-0.023 0.110186,-0.0376 l 3.282651,-1.32047 0.479083,5.98894 1.365894,-0.54944 1.334118,-6.71833 3.873787,-1.55826 c 0.539674,-0.21709 0.799411,-0.82641 0.582322,-1.36608 -0.217089,-0.53967 -0.826411,-0.79941 -1.366084,-0.58232 l -3.873787,1.55826 -5.614727,-3.923079 z" />
      <path style="fill:#e5e5e5;" d="m 58.488281,96.15625 v 20.76563 H 91.037109 V 96.15625 Z m 2.201172,2.201172 H 88.837891 V 114.72266 H 60.689453 Z" />
    </g>
  </g>
</svg>
